<svg width="72" height="80" viewBox="0 0 72 80" fill="none" xmlns="http://www.w3.org/2000/svg">
<g id="LOGO">
<path id="Bottom" fill-rule="evenodd" clip-rule="evenodd" d="M0 22.4987C0 18.5468 2.32734 14.9656 5.93862 13.3606L36 0L72 16V57.5013C72 61.4532 69.6727 65.0344 66.0614 66.6394L36 80L0 64V22.4987Z" fill="#0CA6DC"/>
<path id="Right" fill-rule="evenodd" clip-rule="evenodd" d="M36 0L72 16V57.5013C72 61.4532 69.6727 65.0344 66.0614 66.6394L36 80V0Z" fill="url(#paint0_linear_517_29329)"/>
<path id="Left" fill-rule="evenodd" clip-rule="evenodd" d="M36 0V80L0 64V22.4987C0 18.5468 2.32734 14.9656 5.93862 13.3606L36 0Z" fill="url(#paint1_linear_517_29329)"/>
<path id="Bottom_2" fill-rule="evenodd" clip-rule="evenodd" d="M0 22.4987C0 18.5468 2.32734 14.9656 5.93862 13.3606L36 0L72 16V57.5013C72 61.4532 69.6727 65.0344 66.0614 66.6394L36 80L0 64V22.4987Z" fill="url(#paint2_linear_517_29329)"/>
<path id="&#232;&#183;&#175;&#229;&#190;&#132;" opacity="0.0608491" fill-rule="evenodd" clip-rule="evenodd" d="M36 0L58 9.778V50.2686C58 53.0752 56.5182 57.0742 54.6905 59.2005L36.788 79.65L36.0069 79.9994L35.9959 79.9996L35.028 79.568L17.2974 59.2073C15.4763 57.0772 14 53.0756 14 50.2686V9.777L36 0Z" fill="url(#paint3_linear_517_29329)"/>
<path id="&#229;&#189;&#162;&#231;&#138;&#182;" fill-rule="evenodd" clip-rule="evenodd" d="M23.0342 16.0586C22.9947 16.0211 22.9411 16 22.8853 16H13.2107C13.1548 16 13.1012 16.0211 13.0617 16.0586C12.9794 16.1367 12.9794 16.2633 13.0617 16.3414L23.9658 26.9414C24.0053 26.9789 24.0589 27 24.1147 27H33.7893C33.8452 27 33.8988 26.9789 33.9383 26.9414C34.0206 26.8633 34.0206 26.7367 33.9383 26.6586L23.0342 16.0586ZM59 16.2107C59 16.1548 58.9789 16.1012 58.9414 16.0617C58.8633 15.9794 58.7367 15.9794 58.6586 16.0617L48.0586 26.9658C48.0211 27.0053 48 27.0589 48 27.1147V36.7893C48 36.8452 48.0211 36.8988 48.0586 36.9383C48.1367 37.0206 48.2633 37.0206 48.3414 36.9383L58.9414 26.0342C58.9789 25.9947 59 25.9411 59 25.8853V16.2107ZM23.8853 28C23.9411 28 23.9947 28.0211 24.0342 28.0586L34.9383 38.6586C35.0206 38.7367 35.0206 38.8633 34.9383 38.9414C34.8988 38.9789 34.8452 39 34.7893 39H25.1147C25.0589 39 25.0053 38.9789 24.9658 38.9414L14.0617 28.3414C13.9794 28.2633 13.9794 28.1367 14.0617 28.0586C14.1012 28.0211 14.1548 28 14.2107 28H23.8853ZM47.0342 39.0586C46.9947 39.0211 46.9411 39 46.8853 39H37.2107C37.1548 39 37.1012 39.0211 37.0617 39.0586C36.9794 39.1367 36.9794 39.2633 37.0617 39.3414L47.9658 49.9414C48.0053 49.9789 48.0589 50 48.1147 50H57.7893C57.8452 50 57.8988 49.9789 57.9383 49.9414C58.0206 49.8633 58.0206 49.7367 57.9383 49.6586L47.0342 39.0586ZM48.0342 51.0586C47.9947 51.0211 47.9411 51 47.8853 51H38.2107C38.1548 51 38.1012 51.0211 38.0617 51.0586C37.9794 51.1367 37.9794 51.2633 38.0617 51.3414L48.9658 61.9414C49.0053 61.9789 49.0589 62 49.1147 62H58.7893C58.8452 62 58.8988 61.9789 58.9383 61.9414C59.0206 61.8633 59.0206 61.7367 58.9383 61.6586L48.0342 51.0586ZM24 41.2107C24 41.1548 23.9789 41.1012 23.9414 41.0617C23.8633 40.9794 23.7367 40.9794 23.6586 41.0617L13.0586 51.9658C13.0211 52.0053 13 52.0589 13 52.1147V61.7893C13 61.8452 13.0211 61.8988 13.0586 61.9383C13.1367 62.0206 13.2633 62.0206 13.3414 61.9383L23.9414 51.0342C23.9789 50.9947 24 50.9411 24 50.8853V41.2107ZM35.9414 40.0617C35.9789 40.1012 36 40.1548 36 40.2107V49.8853C36 49.9411 35.9789 49.9947 35.9414 50.0342L25.3414 60.9383C25.2633 61.0206 25.1367 61.0206 25.0586 60.9383C25.0211 60.8988 25 60.8452 25 60.7893V51.1147C25 51.0589 25.0211 51.0053 25.0586 50.9658L35.6586 40.0617C35.7367 39.9794 35.8633 39.9794 35.9414 40.0617ZM46.9414 17.0617C46.9789 17.1012 47 17.1548 47 17.2107V26.8853C47 26.9411 46.9789 26.9947 46.9414 27.0342L36.3414 37.9383C36.2633 38.0206 36.1367 38.0206 36.0586 37.9383C36.0211 37.8988 36 37.8452 36 37.7893V28.1147C36 28.0589 36.0211 28.0053 36.0586 27.9658L46.6586 17.0617C46.7367 16.9794 46.8633 16.9794 46.9414 17.0617Z" fill="white"/>
</g>
<defs>
<linearGradient id="paint0_linear_517_29329" x1="83.3777" y1="44.5709" x2="55.9342" y2="39.9063" gradientUnits="userSpaceOnUse">
<stop stop-color="white" stop-opacity="0.404954"/>
<stop offset="1" stop-color="white" stop-opacity="0.01"/>
</linearGradient>
<linearGradient id="paint1_linear_517_29329" x1="-6.17782" y1="20" x2="17.9968" y2="27.4673" gradientUnits="userSpaceOnUse">
<stop stop-color="white" stop-opacity="0.404954"/>
<stop offset="1" stop-color="white" stop-opacity="0.01"/>
</linearGradient>
<linearGradient id="paint2_linear_517_29329" x1="0" y1="81.8905" x2="72" y2="81.8905" gradientUnits="userSpaceOnUse">
<stop stop-opacity="0.0907212"/>
<stop offset="0.494299" stop-opacity="0.07"/>
<stop offset="0.500424" stop-opacity="0.0958534"/>
<stop offset="1" stop-opacity="0.1"/>
</linearGradient>
<linearGradient id="paint3_linear_517_29329" x1="15.1531" y1="4.19322" x2="15.1531" y2="79.9996" gradientUnits="userSpaceOnUse">
<stop stop-opacity="0.1"/>
<stop offset="1"/>
</linearGradient>
</defs>
</svg>
