<svg width="388" height="359" xmlns="http://www.w3.org/2000/svg" xmlns:xlink="http://www.w3.org/1999/xlink" xml:space="preserve" overflow="hidden"><defs><clipPath id="clip0"><rect x="489" y="125" width="388" height="359"/></clipPath><clipPath id="clip1"><rect x="489" y="125" width="388" height="359"/></clipPath><clipPath id="clip2"><rect x="490" y="126" width="387" height="357"/></clipPath><clipPath id="clip3"><rect x="490" y="126" width="387" height="358"/></clipPath></defs><g clip-path="url(#clip0)" transform="translate(-489 -125)"><g clip-path="url(#clip1)"><g clip-path="url(#clip2)"><g clip-path="url(#clip3)"><g><path d="M942.579 0C924.55 0 911.467 14.3136 911.467 30.3083 911.467 46.303 924.55 60.641 942.579 60.641 960.609 60.641 974.52 47.5943 974.52 30.3083 974.52 13.0224 960.596-5.40981e-15 942.579-5.40981e-15ZM919.276 285.371 966.675 285.371 966.675 95.6637 919.276 95.6637 919.276 285.371ZM494.752 90.9372C437.473 90.9372 391.633 130.833 391.633 190.511 391.633 250.19 437.473 290.122 494.752 290.122 520.894 290.122 545.489 281.997 566.04 261.982L536.109 232.051C524.951 243.794 510.613 252.163 490.062 252.163 463.566 252.163 442.224 235.145 439.044 207.115L583.703 207.115 583.703 194.081C583.703 128.055 547.767 90.9372 494.752 90.9372ZM439.044 171.544C442.614 144.257 460.009 126.472 488.052 126.472 517.702 126.472 535.878 143.891 536.292 171.544L439.044 171.544ZM649.851 149.02C649.851 134.779 664.871 128.859 677.54 128.859 693.62 128.859 705.461 135.523 714.536 148.07L744.698 117.932C729.081 98.4412 703.195 90.9372 678.697 90.9372 640.361 90.9372 602.415 109.88 602.415 152.187 602.415 224.523 704.778 193.679 704.778 232.794 704.778 247.814 686.993 254.527 673.167 254.527 653.067 254.527 640.434 244.708 628.216 231.32L597.578 261.945C616.826 282.788 641.677 290.122 670.401 290.122 709.127 290.122 752.227 274.298 752.227 229.237 752.227 155.33 649.851 183.007 649.851 149.02ZM822.223 125.68 821.468 125.68 821.468 95.6637 774.056 95.6637 774.056 285.371 821.468 285.371 821.468 183.775C821.468 173.518 827.778 135.961 872.449 135.961 879.319 135.961 886.178 137.325 893.377 139.043L895.229 93.6537C889.747 92.1066 884.253 90.9372 878.393 90.9372 853.469 90.9372 832.505 103.972 822.223 125.68ZM180.071 27.604C165.246 27.1532 156.536 29.0658 147.777 30.7712 145.146 30.0891 140.225 30.8078 139.945 36.5211 139.945 39.5909 140.919 41.9663 142.868 43.3672 144.805 44.756 161.056 56.7672 172.994 69.4607 167.268 70.0941 161.056 71.1417 154.672 72.4574 147.546 57.0596 124.644 71.0687 109.429 71.6777 107.651 71.7508 105.945 71.9823 104.179 72.1041 102.51 59.2401 101.316 45.9132 101.621 36.5332 121.331 25.3625 159.46 17.1276 185.358 16.7256L189.902 16.6038C193.703 16.5673 194.007 13.5462 190.426 13.0589 158.254 8.66126 130.382 15.1663 101.755 27.0071 71.9579 39.5665 34.0481 68.4617 10.9514 122.988 5.54272 138.178-16.08 210.636 22.3414 272.824 53.5269 323.281 93.6659 347.291 142.783 354.149 191.803 360.983 218.395 355.063 249.398 341.298 321.892 309.113 377.258 188.306 321.88 100.744 300.026 60.3121 242.759 24.8631 180.071 27.604ZM152.553 84.2128C162.03 82.0688 171.642 80.5705 181.326 79.7299 189.415 89.317 196.553 99.6837 202.62 110.672 192.814 115.423 179.743 119.053 174.419 126.654 172.214 129.822 171.666 134.122 171.593 138.775 155.428 142.625 139.628 147.863 124.364 154.441 118.846 138.215 114.01 122.037 110.672 107.638 126.459 92.5695 144.939 90.121 152.553 84.2128ZM233.074 277.66C228.762 278.123 224.474 278.671 220.698 279.244 211.318 280.718 199.233 283.86 187.99 288.051 181.533 277.782 164.235 252.833 155.501 234 173.067 225.363 197.613 218.127 225.851 216.41 228.165 220.43 230.723 224.45 234.256 228.056 243.478 237.484 228.884 250.994 233.074 277.66ZM128.274 166.318C141.918 159.862 156.293 154.526 171.642 150.652 171.544 154.709 171.093 158.558 169.425 161.653 167.037 166.111 168.133 179.048 171.057 183.275 180.254 196.663 195.518 189.22 207.005 194.032 212.28 196.237 215.789 199.903 218.749 204.265 194.702 205.775 171.118 211.379 149.239 221.441 137.995 197.565 128.287 166.33 128.287 166.33L128.274 166.33ZM138.41 226.472C137.557 226.874 136.643 227.373 135.766 227.812 122.683 224.109 109.454 220.929 96.1023 218.31 83.9814 215.825 83.5428 216.483 69.8992 220.442 67.9501 221.002 66.0863 221.514 64.2712 222.062 62.383 217.214 60.5679 212.329 58.8503 207.42 76.3434 193.947 93.9826 182.642 117.579 171.057 123.67 189.22 132.38 213.486 138.41 226.472ZM147.765 281.631C151.335 272.312 154.112 265.417 155.135 258.608 162.067 270.278 170.338 282.971 176.746 292.899 166.769 297.736 155.16 305.203 144.196 313.426 144.951 300.793 145.207 288.282 147.765 281.631ZM212.743 103.338C212.621 103.509 212.402 103.655 212.256 103.826 207.139 94.9572 201.548 86.369 195.494 78.1097 207.761 77.3666 222.854 78.0123 236.595 79.4254 224.243 83.8474 218.797 94.7014 212.743 103.338ZM102.766 116.665C102.997 116.348 103.241 116.093 103.46 115.788 106.311 130.187 109.709 142.101 114.253 158.644 97.1743 166.172 66.9756 184.81 53.6365 194.848 51.2245 188.733 48.715 180.059 46.4614 171.142 49.4947 162.164 55.6952 155.866 64.4417 155.001 79.401 153.503 92.2163 131.247 102.766 116.665ZM36.8621 94.9328C52.8569 72.5426 74.577 50.7494 94.3968 39.871 94.2019 44.7438 95.4445 58.9599 97.0524 72.6767 90.1088 73.371 83.2383 74.2359 76.4408 75.247 60.373 88.9394 47.4238 105.921 38.4945 125.046 37.0692 112.207 36.314 101.499 36.8621 94.9328ZM26.4223 112.45C26.4223 112.45 27.1776 125.363 27.7989 134.779 27.7989 134.779 18.2849 145.573 13.4243 154.149 15.3613 136.57 19.4909 127.507 26.4223 112.45ZM119.784 336.059C70.4961 320.625 33.9751 279.085 20.9405 235.523 13.3878 209.966 10.6956 183.214 13.0102 156.67 13.6923 156.792 15.276 157.547 17.6393 156.877 19.2838 155.744 25.1432 151.639 29.2972 148.009L29.5165 149.605C26.7147 160.203 24.9971 171.227 24.6438 182.617 29.1511 187.368 34.438 195.262 40.3096 203.412 36.5332 206.214 29.2851 211.22 27.5796 212.438 22.5851 215.996 22.6338 221.611 26.1909 224.803 28.1522 226.557 32.1843 225.826 33.6583 224.681 38.0194 221.209 41.6496 218.432 46.6441 215.301 48.4714 220.089 50.2012 224.413 51.8823 228.531 49.7505 230.821 48.2278 233.842 47.7161 238.252 46.0716 252.529 59.6421 263.736 71.0808 267.001 71.5072 267.123 71.8117 267.171 72.2259 267.281 72.835 268.207 73.3832 269.072 74.0288 270.01 68.0963 274.614 64.0397 279.329 61.2501 282.959 59.6421 285.054 57.8392 288.197 59.301 288.818 60.7994 289.428 65.8183 288.818 68.0597 288.404 73.7365 287.308 78.1219 281.022 82.0445 278.708 86.7588 285.213 94.4334 293.569 102.412 301.609 102.766 303.071 103.082 304.606 103.484 305.885 105.007 310.794 107.054 315.679 109.514 320.455 115.252 323.135 121.233 325.352 127.349 327.289 124.656 330.066 122.135 332.99 119.772 336.059L119.784 336.059ZM131.831 339.872C133.72 337.399 135.632 334.342 137.983 332.247 143.684 336.023 149.787 340.347 154.648 343.137 147.156 342.284 138.361 342.102 131.831 339.872ZM169.753 343.649C169.753 343.649 150.214 330.712 145.28 325.729 155.062 317.604 170.886 307.956 183.385 302.718 188.282 310.392 204.423 333.258 210.891 340.628 199.16 342.674 182.751 344.209 169.753 343.649ZM251.42 325.254C247.936 327.557 231.15 335.17 224.572 337.29 213.559 325.169 203.619 312.11 194.848 298.284 205.129 293.971 220.954 290.122 235.608 288.295 236.936 292.461 238.654 296.871 241.017 301.622 243.332 306.275 246.024 309.686 248.923 312.013 249.958 311.367 250.921 310.612 251.944 309.942 251.871 315.058 251.725 320.247 251.42 325.254ZM247.4 63.6256C244.111 61.5303 240.006 62.3099 241.711 65.9767 242.357 67.4019 244.866 69.8018 246.913 72.2137 234.902 68.9003 202.961 66.3787 187.758 67.7796 177.83 56.621 166.513 43.0749 152.906 34.0969 213.803 30.3083 268.511 55.4881 292.668 85.0899 284.616 80.8994 267.244 74.9303 260.179 73.3588 256.366 69.4728 251.554 66.2934 247.388 63.6134ZM260.727 320.235C261.007 315.277 261.214 309.004 261.373 303.23 267.305 298.625 272.897 293.606 278.062 288.148 284.725 288.916 291.389 290.049 295.445 291.072 286.431 302.474 273.981 311.976 260.727 320.235ZM307.323 274.87C305.861 277.952 302.109 283.251 299.612 285.761 295.811 284.226 290.098 282.618 284.116 281.193 285.066 280.048 286.102 278.976 287.04 277.794 290.305 255.915 282.922 248.923 292.156 228.896L294.252 224.377C299.344 225.814 304.143 227.386 308.297 229.079 308.821 236.583 308.784 262.311 307.323 274.87ZM298.698 214.972C301.086 210.014 303.717 204.74 306.555 199.501 307.298 206.165 307.834 212.658 308.151 218.542 305.057 217.214 301.902 216.02 298.698 214.972ZM325.717 228.689 323.354 237.898C321.685 244.172 316.13 258.997 313.219 264.979 314.327 256.902 315.302 235.937 315.022 231.722 316.971 232.319 321.137 229.932 321.831 227.568 322.525 225.193 314.961 221.538 314.961 221.538 314.985 210.538 314.278 199.55 312.865 188.647 314.595 185.846 316.349 183.141 318.152 180.668 317.823 174.224 317.056 167.817 315.886 161.482 317.409 161.981 318.81 162.383 319.821 162.396 323.269 162.444 323.256 160.081 322.16 158.765 321.453 157.913 318.164 155.866 314.327 153.649 308.699 129.529 297.053 107.236 280.462 88.8419 286.955 91.3026 295.25 94.6892 301.829 98.2706 306.823 104.556 321.137 118.675 328.775 158.205 335.645 193.8 328.044 220.856 325.717 228.689ZM986.544 98.6361 986.544 95.7124 1001.38 95.7124 1001.38 98.6361 995.68 98.6361 995.68 113.145 992.232 113.145 992.232 98.6361 986.544 98.6361ZM1009.32 95.7124 1013.77 108.199 1018.25 95.7246 1023.2 95.7246 1023.2 113.145 1020.01 113.145 1020.01 99.0868 1015.18 113.145 1012.39 113.145 1007.52 99.0868 1007.52 113.145 1004.34 113.145 1004.34 95.7246 1009.32 95.7246Z" fill="#151515" fill-rule="nonzero" fill-opacity="1" transform="matrix(1.03124 0 0 1 504.317 126)"/><path d="M1144.75 73.1883 1218.13 73.1883C1231.58 73.1883 1245.13 74.9425 1258.77 78.4508 1272.41 81.9592 1284.69 87.8065 1295.61 95.9926 1306.52 103.984 1315.39 114.606 1322.21 127.86 1329.04 140.919 1332.45 157.194 1332.45 176.685 1332.45 194.811 1329.04 210.404 1322.21 223.463 1315.39 236.522 1306.52 247.242 1295.61 255.623 1284.69 264.004 1272.41 270.241 1258.77 274.334 1245.13 278.232 1231.58 280.182 1218.13 280.182L1144.75 280.182 1144.75 73.1883ZM1212.28 248.022C1221.84 248.022 1231.39 246.95 1240.94 244.806 1250.49 242.467 1259.06 238.666 1266.66 233.403 1274.46 227.946 1280.8 220.637 1285.67 211.476 1290.54 202.315 1292.98 190.718 1292.98 176.685 1292.98 161.872 1290.54 149.787 1285.67 140.432 1280.8 131.076 1274.46 123.767 1266.66 118.505 1259.06 113.242 1250.49 109.636 1240.94 107.687 1231.39 105.738 1221.84 104.764 1212.28 104.764L1181.59 104.764 1181.59 248.022 1212.28 248.022ZM1465.08 195.981C1465.08 191.498 1464.4 187.21 1463.03 183.117 1461.87 179.024 1459.92 175.418 1457.19 172.299 1454.46 169.181 1450.95 166.745 1446.66 164.99 1442.57 163.041 1437.7 162.067 1432.04 162.067 1421.52 162.067 1412.55 165.283 1405.15 171.715 1397.94 177.952 1393.94 186.041 1393.16 195.981L1465.08 195.981ZM1500.17 211.769 1500.17 216.446C1500.17 218.006 1500.07 219.565 1499.87 221.124L1393.16 221.124C1393.55 226.192 1394.82 230.87 1396.96 235.158 1399.3 239.251 1402.32 242.856 1406.02 245.975 1409.73 248.899 1413.92 251.238 1418.6 252.992 1423.27 254.746 1428.15 255.623 1433.21 255.623 1441.98 255.623 1449.39 254.064 1455.43 250.945 1461.48 247.632 1466.45 243.149 1470.34 237.496L1493.73 256.208C1479.89 274.919 1459.82 284.275 1433.51 284.275 1422.59 284.275 1412.55 282.618 1403.39 279.304 1394.23 275.796 1386.24 270.923 1379.42 264.686 1372.79 258.449 1367.53 250.848 1363.63 241.882 1359.93 232.721 1358.08 222.391 1358.08 210.891 1358.08 199.587 1359.93 189.354 1363.63 180.193 1367.53 170.838 1372.79 162.944 1379.42 156.512 1386.05 149.885 1393.84 144.817 1402.81 141.309 1411.97 137.606 1421.81 135.754 1432.34 135.754 1442.08 135.754 1451.05 137.411 1459.23 140.724 1467.62 143.843 1474.83 148.618 1480.87 155.05 1486.91 161.287 1491.59 169.181 1494.9 178.731 1498.41 188.087 1500.17 199.099 1500.17 211.769ZM1513.09 139.847 1551.39 139.847 1588.23 242.174 1588.81 242.174 1625.94 139.847 1663.07 139.847 1607.23 280.182 1569.81 280.182 1513.09 139.847ZM1782.86 195.981C1782.86 191.498 1782.17 187.21 1780.81 183.117 1779.64 179.024 1777.69 175.418 1774.96 172.299 1772.23 169.181 1768.73 166.745 1764.44 164.99 1760.34 163.041 1755.47 162.067 1749.82 162.067 1739.29 162.067 1730.33 165.283 1722.92 171.715 1715.71 177.952 1711.71 186.041 1710.93 195.981L1782.86 195.981ZM1817.94 211.769 1817.94 216.446C1817.94 218.006 1817.84 219.565 1817.65 221.124L1710.93 221.124C1711.32 226.192 1712.59 230.87 1714.74 235.158 1717.07 239.251 1720.1 242.856 1723.8 245.975 1727.5 248.899 1731.69 251.238 1736.37 252.992 1741.05 254.746 1745.92 255.623 1750.99 255.623 1759.76 255.623 1767.17 254.064 1773.21 250.945 1779.25 247.632 1784.22 243.149 1788.12 237.496L1811.51 256.208C1797.67 274.919 1777.59 284.275 1751.28 284.275 1740.37 284.275 1730.33 282.618 1721.17 279.304 1712.01 275.796 1704.02 270.923 1697.19 264.686 1690.57 258.449 1685.3 250.848 1681.41 241.882 1677.7 232.721 1675.85 222.391 1675.85 210.891 1675.85 199.587 1677.7 189.354 1681.41 180.193 1685.3 170.838 1690.57 162.944 1697.19 156.512 1703.82 149.885 1711.62 144.817 1720.58 141.309 1729.74 137.606 1739.59 135.754 1750.11 135.754 1759.86 135.754 1768.82 137.411 1777.01 140.724 1785.39 143.843 1792.6 148.618 1798.64 155.05 1804.69 161.287 1809.36 169.181 1812.68 178.731 1816.19 188.087 1817.94 199.099 1817.94 211.769ZM1852.5 59.1548 1887.58 59.1548 1887.58 280.182 1852.5 280.182 1852.5 59.1548ZM1921.96 209.43C1921.96 198.32 1923.91 188.282 1927.81 179.316 1931.9 170.155 1937.36 162.359 1944.18 155.927 1951 149.495 1959.09 144.525 1968.45 141.017 1977.8 137.508 1987.74 135.754 1998.27 135.754 2008.79 135.754 2018.73 137.508 2028.09 141.017 2037.44 144.525 2045.53 149.495 2052.35 155.927 2059.18 162.359 2064.54 170.155 2068.43 179.316 2072.53 188.282 2074.57 198.32 2074.57 209.43 2074.57 220.539 2072.53 230.675 2068.43 239.835 2064.54 248.996 2059.18 256.89 2052.35 263.517 2045.53 269.949 2037.44 275.016 2028.09 278.72 2018.73 282.423 2008.79 284.275 1998.27 284.275 1987.74 284.275 1977.8 282.423 1968.45 278.72 1959.09 275.016 1951 269.949 1944.18 263.517 1937.36 256.89 1931.9 248.996 1927.81 239.835 1923.91 230.675 1921.96 220.539 1921.96 209.43ZM1957.63 209.43C1957.63 214.887 1958.41 220.344 1959.97 225.802 1961.72 231.259 1964.26 236.132 1967.57 240.42 1970.88 244.708 1975.07 248.216 1980.14 250.945 1985.21 253.674 1991.25 255.038 1998.27 255.038 2005.28 255.038 2011.33 253.674 2016.39 250.945 2021.46 248.216 2025.65 244.708 2028.97 240.42 2032.28 236.132 2034.71 231.259 2036.27 225.802 2038.03 220.344 2038.91 214.887 2038.91 209.43 2038.91 203.972 2038.03 198.612 2036.27 193.35 2034.71 187.892 2032.28 183.019 2028.97 178.731 2025.65 174.443 2021.46 171.033 2016.39 168.499 2011.33 165.77 2005.28 164.406 1998.27 164.406 1991.25 164.406 1985.21 165.77 1980.14 168.499 1975.07 171.033 1970.88 174.443 1967.57 178.731 1964.26 183.019 1961.72 187.892 1959.97 193.35 1958.41 198.612 1957.63 203.972 1957.63 209.43ZM2142.22 139.847 2142.22 159.435 2143.1 159.435C2144.85 156.707 2147.09 153.978 2149.82 151.249 2152.74 148.326 2156.25 145.792 2160.35 143.648 2164.44 141.309 2169.02 139.457 2174.09 138.093 2179.35 136.534 2185.2 135.754 2191.63 135.754 2201.57 135.754 2210.73 137.703 2219.11 141.601 2227.49 145.305 2234.7 150.47 2240.75 157.097 2246.79 163.723 2251.47 171.52 2254.78 180.486 2258.09 189.451 2259.75 199.099 2259.75 209.43 2259.75 219.76 2258.09 229.505 2254.78 238.666 2251.66 247.632 2247.08 255.526 2241.04 262.347 2235.19 268.974 2227.98 274.334 2219.4 278.427 2211.02 282.326 2201.47 284.275 2190.75 284.275 2180.81 284.275 2171.65 282.228 2163.27 278.135 2155.08 274.042 2148.75 268.487 2144.27 261.47L2143.68 261.47 2143.68 350.349 2108.6 350.349 2108.6 139.847 2142.22 139.847ZM2224.08 209.43C2224.08 203.972 2223.2 198.612 2221.45 193.35 2219.89 187.892 2217.45 183.019 2214.14 178.731 2210.83 174.443 2206.64 171.033 2201.57 168.499 2196.5 165.77 2190.56 164.406 2183.73 164.406 2177.3 164.406 2171.55 165.77 2166.49 168.499 2161.42 171.227 2157.03 174.736 2153.33 179.024 2149.82 183.312 2147.09 188.185 2145.14 193.642 2143.39 199.099 2142.51 204.557 2142.51 210.014 2142.51 215.472 2143.39 220.929 2145.14 226.387 2147.09 231.649 2149.82 236.424 2153.33 240.712 2157.03 245 2161.42 248.509 2166.49 251.238 2171.55 253.771 2177.3 255.038 2183.73 255.038 2190.56 255.038 2196.5 253.674 2201.57 250.945 2206.64 248.216 2210.83 244.708 2214.14 240.42 2217.45 236.132 2219.89 231.259 2221.45 225.802 2223.2 220.344 2224.08 214.887 2224.08 209.43ZM2392.42 195.981C2392.42 191.498 2391.74 187.21 2390.38 183.117 2389.21 179.024 2387.26 175.418 2384.53 172.299 2381.8 169.181 2378.29 166.745 2374 164.99 2369.91 163.041 2365.04 162.067 2359.38 162.067 2348.86 162.067 2339.89 165.283 2332.49 171.715 2325.28 177.952 2321.28 186.041 2320.5 195.981L2392.42 195.981ZM2427.5 211.769 2427.5 216.446C2427.5 218.006 2427.41 219.565 2427.21 221.124L2320.5 221.124C2320.89 226.192 2322.16 230.87 2324.3 235.158 2326.64 239.251 2329.66 242.856 2333.36 245.975 2337.07 248.899 2341.26 251.238 2345.94 252.992 2350.61 254.746 2355.49 255.623 2360.55 255.623 2369.32 255.623 2376.73 254.064 2382.77 250.945 2388.82 247.632 2393.79 243.149 2397.68 237.496L2421.07 256.208C2407.23 274.919 2387.16 284.275 2360.85 284.275 2349.93 284.275 2339.89 282.618 2330.73 279.304 2321.57 275.796 2313.58 270.923 2306.76 264.686 2300.13 258.449 2294.87 250.848 2290.97 241.882 2287.27 232.721 2285.42 222.391 2285.42 210.891 2285.42 199.587 2287.27 189.354 2290.97 180.193 2294.87 170.838 2300.13 162.944 2306.76 156.512 2313.39 149.885 2321.18 144.817 2330.15 141.309 2339.31 137.606 2349.15 135.754 2359.68 135.754 2369.42 135.754 2378.39 137.411 2386.57 140.724 2394.96 143.843 2402.17 148.618 2408.21 155.05 2414.25 161.287 2418.93 169.181 2422.24 178.731 2425.75 188.087 2427.5 199.099 2427.5 211.769ZM2461.48 139.847 2495.1 139.847 2495.1 163.236 2495.69 163.236C2499.58 155.05 2505.04 148.423 2512.06 143.355 2519.08 138.288 2527.26 135.754 2536.62 135.754 2537.98 135.754 2539.44 135.852 2541 136.046 2542.56 136.046 2543.93 136.241 2545.1 136.631L2545.1 168.791C2542.76 168.206 2540.71 167.817 2538.96 167.622 2537.4 167.427 2535.84 167.329 2534.28 167.329 2526.29 167.329 2519.86 168.791 2514.98 171.715 2510.11 174.638 2506.31 178.147 2503.58 182.24 2500.85 186.333 2499 190.523 2498.03 194.811 2497.05 199.099 2496.56 202.51 2496.56 205.044L2496.56 280.182 2461.48 280.182 2461.48 139.847Z" fill="#6D29CC" fill-rule="nonzero" fill-opacity="1" transform="matrix(1.03124 0 0 1 504.317 126)"/></g></g></g></g></g></svg>